<svg viewBox="0 0 128 128" xmlns="http://www.w3.org/2000/svg"><path d="m105.6064 17.89172a65.90911 65.90911 0 0 0 -41.6064-14.44463c-34.63472 0-62.71036 25.68876-62.71036 57.37748 0 .15425 0 .31234.00386.46659-.00386.07327-.00386.14267-.00386.21594a48.8561 48.8561 0 0 0 2.36374 14.9729c.03085.1041.06557.21208.10026.32a55.89918 55.89918 0 0 0 12.57446 21.30451 26.08286 26.08286 0 0 1 -6.92925 24.14249 1.35039 1.35039 0 0 0 .95242 2.30589 40.288 40.288 0 0 0 27.72861-11.20944l.18508-.17739a67.409 67.409 0 0 0 25.73504 5.03985c19.10268 0 36.208-7.81612 47.71045-20.14381a54.36311 54.36311 0 0 0 14.9999-37.23753c.00001-17.08214-8.15935-32.42135-21.10395-42.93285z" fill="#2d3e50"/></svg>