<svg viewBox="0 0 512 512" xmlns="http://www.w3.org/2000/svg"><path d="m460.8 153.6v192a64 64 0 0 1 -64 64h-179.2a64 64 0 0 1 -64-64v-281.6a64 64 0 0 1 64-64h89.79z" fill="#dde5e8"/><path d="m460.8 153.6h-89.6a64 64 0 0 1 -64-64v-89.6h.19z" fill="#9bbdc6"/><g fill="#afc3c9"><path d="m320 217.6a12.8 12.8 0 0 1 -12.8 12.8h-51.2a12.8 12.8 0 0 1 -12.8-12.8 12.8 12.8 0 0 1 12.8-12.8h51.2a12.8 12.8 0 0 1 12.8 12.8z"/><path d="m371.2 268.8a12.8 12.8 0 0 1 -12.8 12.8h-102.4a12.8 12.8 0 0 1 -12.8-12.8 12.8 12.8 0 0 1 12.8-12.8h102.4a12.8 12.8 0 0 1 12.8 12.8z"/><path d="m370.82 320a12.8 12.8 0 0 1 -12.82 12.8h-102a12.8 12.8 0 0 1 -12.8-12.8 12.8 12.8 0 0 1 12.8-12.8h102a12.8 12.8 0 0 1 12.8 12.8z"/></g><path d="m396.8 409.6h-179.2a64 64 0 0 1 -64-64v-281.6a64.1 64.1 0 0 1 1.12-11.69 64 64 0 0 0 -52.32 62.89v281.6a64 64 0 0 0 64 64h179.2a64 64 0 0 0 62.89-52.32 64.06 64.06 0 0 1 -11.69 1.12z" fill="#cad8dd"/><path d="m345.6 460.8h-179.2a64 64 0 0 1 -64-64v-281.6a64.24 64.24 0 0 1 1.07-11.68 64 64 0 0 0 -52.27 62.88v281.6a64 64 0 0 0 64 64h179.2a64 64 0 0 0 62.88-52.27 64.19 64.19 0 0 1 -11.68 1.07z" fill="#b7c9ce"/></svg>